<svg xmlns="http://www.w3.org/2000/svg" width="48" height="48" viewBox="0 0 48 48" fill="none">
  <!-- Raven silhouette for Odin — Huginn & Muninn -->
  <g transform="translate(4, 4)">
    <!-- Body -->
    <path d="M20 8 C14 8, 6 14, 6 22 C6 30, 12 36, 18 36 L16 40 L22 37 L26 40 L24 36 C30 36, 36 30, 36 22 C36 16, 32 10, 26 8 Z" fill="#705CF2"/>
    <!-- Wing -->
    <path d="M14 18 C10 20, 4 26, 2 32 C6 30, 12 28, 16 24 C14 22, 14 20, 14 18 Z" fill="#C2ACF2"/>
    <!-- Head -->
    <circle cx="28" cy="14" r="7" fill="#705CF2"/>
    <!-- Eye -->
    <circle cx="30" cy="13" r="2" fill="#282A36"/>
    <circle cx="30.5" cy="12.5" r="0.8" fill="#C2ACF2"/>
    <!-- Beak -->
    <path d="M34 13 L40 11 L38 14 L34 15 Z" fill="#C2ACF2"/>
  </g>
</svg>
